<svg width="982" height="1203" viewBox="0 0 982 1203" fill="none" xmlns="http://www.w3.org/2000/svg">
<path d="M193.301 627.808C181.393 634.683 167.936 634.915 152.928 628.504C137.92 622.094 125.833 610.95 116.667 595.073C107.5 579.195 103.893 563.156 105.845 546.953C107.797 530.751 114.727 519.213 126.635 512.338C130.784 509.942 134.997 508.388 139.273 507.677C143.561 506.972 148.093 507.005 152.869 507.776L81.6186 384.368C77.0352 376.429 75.232 368.406 76.2089 360.298C77.1841 352.203 80.6486 346.438 86.6025 343L108.253 330.5C114.207 327.062 120.936 326.943 128.441 330.141C135.944 333.354 141.987 338.929 146.57 346.868C151.154 354.806 152.958 362.822 151.983 370.917C151.006 379.025 147.54 384.798 141.587 388.235L119.936 400.735L203.269 545.073C212.436 560.95 216.043 576.989 214.091 593.192C212.139 609.394 205.209 620.933 193.301 627.808Z" fill="#151515"/>
<path d="M273.301 525.808C261.393 532.683 247.936 532.915 232.928 526.504C217.92 520.094 205.833 508.95 196.667 493.073C187.5 477.195 183.893 461.156 185.845 444.953C187.797 428.751 194.727 417.213 206.635 410.338C210.784 407.942 214.997 406.388 219.273 405.677C223.561 404.972 228.093 405.005 232.869 405.776L161.619 282.368C157.035 274.429 155.232 266.406 156.209 258.298C157.184 250.203 160.649 244.438 166.603 241L188.253 228.5C194.207 225.062 200.936 224.943 208.441 228.141C215.944 231.354 221.987 236.929 226.57 244.868C231.154 252.806 232.958 260.822 231.983 268.917C231.006 277.025 227.54 282.798 221.587 286.235L199.936 298.735L283.269 443.073C292.436 458.95 296.043 474.989 294.091 491.192C292.139 507.394 285.209 518.933 273.301 525.808Z" fill="#151515"/>
<path d="M735.301 596.041C723.393 589.166 716.454 577.644 714.483 561.475C712.511 545.306 716.095 529.306 725.235 513.476C734.375 497.646 746.439 486.542 761.427 480.165C776.415 473.788 789.863 474.037 801.771 480.912C805.921 483.307 809.374 486.177 812.129 489.521C814.887 492.878 817.128 496.813 818.852 501.327L889.892 378.282C894.462 370.367 900.497 364.814 907.997 361.623C915.485 358.437 922.206 358.562 928.16 362L949.81 374.5C955.764 377.937 959.237 383.697 960.229 391.779C961.209 399.866 959.413 407.867 954.844 415.782C950.274 423.697 944.245 429.248 936.757 432.434C929.257 435.625 922.529 435.502 916.576 432.065L894.925 419.565L811.838 563.476C802.698 579.306 790.634 590.41 775.646 596.788C760.657 603.165 747.209 602.916 735.301 596.041Z" fill="#151515"/>
<path d="M675.301 502.808C663.393 495.933 656.463 484.394 654.511 468.192C652.559 451.989 656.167 435.95 665.333 420.073C674.5 404.195 686.587 393.052 701.595 386.641C716.602 380.23 730.06 380.463 741.968 387.338C746.118 389.733 749.569 392.605 752.323 395.952C755.078 399.314 757.315 403.255 759.035 407.776L830.285 284.368C834.869 276.429 840.915 270.856 848.426 267.648C855.923 264.445 862.649 264.562 868.603 268L890.253 280.5C896.207 283.937 899.675 289.705 900.658 297.804C901.627 305.908 899.82 313.929 895.237 321.868C890.654 329.806 884.613 335.377 877.116 338.579C869.606 341.787 862.874 341.673 856.92 338.235L835.269 325.735L751.936 470.073C742.769 485.95 730.682 497.094 715.674 503.504C700.667 509.915 687.209 509.683 675.301 502.808Z" fill="#151515"/>
<ellipse cx="480" cy="655.429" rx="350" ry="346.429" fill="#D9D9D9"/>
<ellipse cx="480" cy="655.429" rx="350" ry="346.429" fill="#D9D9D9"/>
<ellipse cx="480" cy="655.429" rx="350" ry="346.429" fill="url(#paint0_linear_103_6)"/>
<circle cx="480" cy="655" r="250" fill="#151515"/>
<path d="M641.64 124.606C637.545 121.951 632.57 120.241 627.282 119.672C621.994 119.104 616.606 119.699 611.733 121.39L544.194 144.683L504.557 89.4443C502.082 85.9769 498.454 83.0867 494.05 81.0741C489.647 79.0615 484.628 78 479.516 78C474.404 78 469.385 79.0615 464.981 81.0741C460.577 83.0867 456.949 85.9769 454.474 89.4443L414.838 144.683L347.298 121.39C342.437 119.67 337.049 119.045 331.752 119.587C326.454 120.129 321.46 121.815 317.34 124.453C313.22 127.091 310.141 130.574 308.455 134.505C306.769 138.435 306.543 142.654 307.804 146.68L344.15 266.918C345.663 271.796 349.255 276.136 354.345 279.236C359.434 282.336 365.724 284.014 372.196 284C374.766 283.985 377.319 283.686 379.78 283.113C445.012 269.208 513.876 269.208 579.108 283.113C582.821 283.927 586.707 284.151 590.534 283.772C594.361 283.392 598.049 282.417 601.378 280.904C604.706 279.391 607.605 277.372 609.901 274.969C612.197 272.566 613.842 269.827 614.738 266.918L651.227 146.68C652.46 142.674 652.214 138.48 650.519 134.577C648.824 130.674 645.747 127.219 641.64 124.606ZM582.686 256.27C515.026 242.662 444.006 242.662 376.346 256.27L343.864 149.342L405.68 170.639C412.214 172.911 419.614 173.191 426.403 171.423C433.192 169.655 438.872 165.969 442.312 161.099L479.516 109.299L516.72 161.099C520.159 165.969 525.84 169.655 532.629 171.423C539.418 173.191 546.817 172.911 553.352 170.639L615.168 149.342L582.686 256.27Z" fill="#151515"/>
<g filter="url(#filter0_i_103_6)">
<path d="M559.663 745.436V706.847C559.663 703.076 556.226 700.24 552.523 700.956L508.471 709.477C505.178 710.114 502.8 712.996 502.8 716.35V772.991C502.8 784.082 493.986 793.164 482.9 793.495L480.655 793.562C472.633 793.802 466 787.364 466 779.339C466 772.574 470.692 766.715 477.293 765.236L487.763 762.891C492.264 761.883 495.463 757.888 495.463 753.275V692.852C495.463 687.111 499.529 682.174 505.163 681.074L554.488 671.443C560.972 670.177 567 675.142 567 681.748V762.101C567 771.959 559.329 780.114 549.49 780.717L544.987 780.993C537.298 781.465 530.657 775.668 530.085 767.986C529.497 760.709 534.445 754.143 541.602 752.702L556.102 749.785C558.173 749.368 559.663 747.549 559.663 745.436Z" fill="white"/>
</g>
<path d="M660 646C660 618.047 652.519 590.576 638.292 566.289C624.066 542.003 603.585 521.738 578.864 507.489C554.144 493.239 526.035 485.497 497.305 485.023C468.575 484.549 440.213 491.36 415.01 504.786C389.807 518.212 368.632 537.79 353.568 561.593C338.503 585.397 330.069 612.606 329.095 640.543C328.121 668.48 334.641 696.182 348.013 720.924C361.385 745.665 381.148 766.594 405.358 781.65L494.5 646H660Z" fill="#DFB316"/>
<path d="M89.1818 1160V1066.91H124.818C131.545 1066.91 137.136 1067.97 141.591 1070.09C146.076 1072.18 149.424 1075.05 151.636 1078.68C153.879 1082.32 155 1086.44 155 1091.05C155 1094.83 154.273 1098.08 152.818 1100.77C151.364 1103.44 149.409 1105.61 146.955 1107.27C144.5 1108.94 141.758 1110.14 138.727 1110.86V1111.77C142.03 1111.95 145.197 1112.97 148.227 1114.82C151.288 1116.64 153.788 1119.21 155.727 1122.55C157.667 1125.88 158.636 1129.91 158.636 1134.64C158.636 1139.45 157.47 1143.79 155.136 1147.64C152.803 1151.45 149.288 1154.47 144.591 1156.68C139.894 1158.89 133.985 1160 126.864 1160H89.1818ZM106.045 1145.91H124.182C130.303 1145.91 134.712 1144.74 137.409 1142.41C140.136 1140.05 141.5 1137.02 141.5 1133.32C141.5 1130.56 140.818 1128.08 139.455 1125.86C138.091 1123.62 136.152 1121.86 133.636 1120.59C131.121 1119.29 128.121 1118.64 124.636 1118.64H106.045V1145.91ZM106.045 1106.5H122.727C125.636 1106.5 128.258 1105.97 130.591 1104.91C132.924 1103.82 134.758 1102.29 136.091 1100.32C137.455 1098.32 138.136 1095.95 138.136 1093.23C138.136 1089.62 136.864 1086.65 134.318 1084.32C131.803 1081.98 128.061 1080.82 123.091 1080.82H106.045V1106.5ZM173.307 1160V1066.91H233.852V1081.05H190.17V1106.32H230.716V1120.45H190.17V1145.86H234.216V1160H173.307ZM263.011 1160H245.011L277.784 1066.91H298.602L331.42 1160H313.42L288.557 1086H287.83L263.011 1160ZM263.602 1123.5H312.693V1137.05H263.602V1123.5ZM328.341 1081.05V1066.91H402.614V1081.05H373.841V1160H357.114V1081.05H328.341Z" fill="#E63E45"/>
<path d="M499.273 1092.5C498.848 1088.53 497.061 1085.44 493.909 1083.23C490.788 1081.02 486.727 1079.91 481.727 1079.91C478.212 1079.91 475.197 1080.44 472.682 1081.5C470.167 1082.56 468.242 1084 466.909 1085.82C465.576 1087.64 464.894 1089.71 464.864 1092.05C464.864 1093.98 465.303 1095.67 466.182 1097.09C467.091 1098.52 468.318 1099.73 469.864 1100.73C471.409 1101.7 473.121 1102.52 475 1103.18C476.879 1103.85 478.773 1104.41 480.682 1104.86L489.409 1107.05C492.924 1107.86 496.303 1108.97 499.545 1110.36C502.818 1111.76 505.742 1113.52 508.318 1115.64C510.924 1117.76 512.985 1120.32 514.5 1123.32C516.015 1126.32 516.773 1129.83 516.773 1133.86C516.773 1139.32 515.379 1144.12 512.591 1148.27C509.803 1152.39 505.773 1155.62 500.5 1157.95C495.258 1160.26 488.909 1161.41 481.455 1161.41C474.212 1161.41 467.924 1160.29 462.591 1158.05C457.288 1155.8 453.136 1152.53 450.136 1148.23C447.167 1143.92 445.561 1138.68 445.318 1132.5H461.909C462.152 1135.74 463.152 1138.44 464.909 1140.59C466.667 1142.74 468.955 1144.35 471.773 1145.41C474.621 1146.47 477.803 1147 481.318 1147C484.985 1147 488.197 1146.45 490.955 1145.36C493.742 1144.24 495.924 1142.7 497.5 1140.73C499.076 1138.73 499.879 1136.39 499.909 1133.73C499.879 1131.3 499.167 1129.3 497.773 1127.73C496.379 1126.12 494.424 1124.79 491.909 1123.73C489.424 1122.64 486.515 1121.67 483.182 1120.82L472.591 1118.09C464.924 1116.12 458.864 1113.14 454.409 1109.14C449.985 1105.11 447.773 1099.76 447.773 1093.09C447.773 1087.61 449.258 1082.8 452.227 1078.68C455.227 1074.56 459.303 1071.36 464.455 1069.09C469.606 1066.79 475.439 1065.64 481.955 1065.64C488.561 1065.64 494.348 1066.79 499.318 1069.09C504.318 1071.36 508.242 1074.53 511.091 1078.59C513.939 1082.62 515.409 1087.26 515.5 1092.5H499.273ZM527.716 1081.05V1066.91H601.989V1081.05H573.216V1160H556.489V1081.05H527.716ZM674.989 1066.91H691.852V1127.73C691.852 1134.39 690.277 1140.26 687.125 1145.32C684.004 1150.38 679.61 1154.33 673.943 1157.18C668.277 1160 661.655 1161.41 654.08 1161.41C646.473 1161.41 639.837 1160 634.17 1157.18C628.504 1154.33 624.11 1150.38 620.989 1145.32C617.867 1140.26 616.307 1134.39 616.307 1127.73V1066.91H633.17V1126.32C633.17 1130.2 634.019 1133.65 635.716 1136.68C637.443 1139.71 639.867 1142.09 642.989 1143.82C646.11 1145.52 649.807 1146.36 654.08 1146.36C658.352 1146.36 662.049 1145.52 665.17 1143.82C668.322 1142.09 670.746 1139.71 672.443 1136.68C674.14 1133.65 674.989 1130.2 674.989 1126.32V1066.91ZM741.727 1160H710.182V1066.91H742.364C751.606 1066.91 759.545 1068.77 766.182 1072.5C772.848 1076.2 777.97 1081.52 781.545 1088.45C785.121 1095.39 786.909 1103.7 786.909 1113.36C786.909 1123.06 785.106 1131.39 781.5 1138.36C777.924 1145.33 772.758 1150.68 766 1154.41C759.273 1158.14 751.182 1160 741.727 1160ZM727.045 1145.41H740.909C747.394 1145.41 752.803 1144.23 757.136 1141.86C761.47 1139.47 764.727 1135.91 766.909 1131.18C769.091 1126.42 770.182 1120.48 770.182 1113.36C770.182 1106.24 769.091 1100.33 766.909 1095.64C764.727 1090.91 761.5 1087.38 757.227 1085.05C752.985 1082.68 747.712 1081.5 741.409 1081.5H727.045V1145.41ZM819.795 1066.91V1160H802.932V1066.91H819.795ZM921.239 1113.45C921.239 1123.48 919.36 1132.08 915.602 1139.23C911.875 1146.35 906.784 1151.8 900.33 1155.59C893.905 1159.38 886.617 1161.27 878.466 1161.27C870.314 1161.27 863.011 1159.38 856.557 1155.59C850.133 1151.77 845.042 1146.3 841.284 1139.18C837.557 1132.03 835.693 1123.45 835.693 1113.45C835.693 1103.42 837.557 1094.85 841.284 1087.73C845.042 1080.58 850.133 1075.11 856.557 1071.32C863.011 1067.53 870.314 1065.64 878.466 1065.64C886.617 1065.64 893.905 1067.53 900.33 1071.32C906.784 1075.11 911.875 1080.58 915.602 1087.73C919.36 1094.85 921.239 1103.42 921.239 1113.45ZM904.284 1113.45C904.284 1106.39 903.178 1100.44 900.966 1095.59C898.784 1090.71 895.754 1087.03 891.875 1084.55C887.996 1082.03 883.527 1080.77 878.466 1080.77C873.405 1080.77 868.936 1082.03 865.057 1084.55C861.178 1087.03 858.133 1090.71 855.92 1095.59C853.739 1100.44 852.648 1106.39 852.648 1113.45C852.648 1120.52 853.739 1126.48 855.92 1131.36C858.133 1136.21 861.178 1139.89 865.057 1142.41C868.936 1144.89 873.405 1146.14 878.466 1146.14C883.527 1146.14 887.996 1144.89 891.875 1142.41C895.754 1139.89 898.784 1136.21 900.966 1131.36C903.178 1126.48 904.284 1120.52 904.284 1113.45Z" fill="black"/>
<ellipse cx="315.5" cy="78" rx="24.5" ry="26" fill="#151515"/>
<ellipse cx="656.5" cy="78" rx="24.5" ry="26" fill="#151515"/>
<ellipse cx="479.5" cy="26" rx="24.5" ry="26" fill="#151515"/>
<defs>
<filter id="filter0_i_103_6" x="466" y="671.245" width="101" height="127.323" filterUnits="userSpaceOnUse" color-interpolation-filters="sRGB">
<feFlood flood-opacity="0" result="BackgroundImageFix"/>
<feBlend mode="normal" in="SourceGraphic" in2="BackgroundImageFix" result="shape"/>
<feColorMatrix in="SourceAlpha" type="matrix" values="0 0 0 0 0 0 0 0 0 0 0 0 0 0 0 0 0 0 127 0" result="hardAlpha"/>
<feOffset dy="5"/>
<feGaussianBlur stdDeviation="3.5"/>
<feComposite in2="hardAlpha" operator="arithmetic" k2="-1" k3="1"/>
<feColorMatrix type="matrix" values="0 0 0 0 0.631373 0 0 0 0 0.298039 0 0 0 0 0.290196 0 0 0 1 0"/>
<feBlend mode="normal" in2="shape" result="effect1_innerShadow_103_6"/>
</filter>
<linearGradient id="paint0_linear_103_6" x1="480" y1="309" x2="480" y2="1001.86" gradientUnits="userSpaceOnUse">
<stop stop-color="#E96777"/>
<stop offset="1" stop-color="#E63E45"/>
</linearGradient>
</defs>
</svg>
