<svg width="800" height="800" viewBox="0 0 800 800" fill="none" xmlns="http://www.w3.org/2000/svg">
<path d="M400 733.333C584.095 733.333 733.333 584.095 733.333 400C733.333 215.905 584.095 66.6667 400 66.6667C215.905 66.6667 66.6666 215.905 66.6666 400C66.6666 584.095 215.905 733.333 400 733.333Z" fill="#E63E45"/>
<path d="M491.667 427.667L385 500C379.892 503.369 373.955 505.268 367.84 505.487C361.724 505.706 355.667 504.237 350.331 501.242C344.995 498.247 340.586 493.841 337.588 488.507C334.59 483.172 333.118 477.115 333.333 471V329C333.118 322.885 334.59 316.828 337.588 311.493C340.586 306.159 344.995 301.753 350.331 298.758C355.667 295.763 361.724 294.294 367.84 294.513C373.955 294.732 379.892 296.631 385 300L491.667 371C496.49 373.989 500.471 378.161 503.231 383.119C505.992 388.077 507.441 393.658 507.441 399.333C507.441 405.008 505.992 410.589 503.231 415.547C500.471 420.506 496.49 424.677 491.667 427.667Z" fill="white"/>
</svg>
